Coordinates
version=1
nRows=6
nColumns=34
inDegrees=yes

Units are S.I. units (second, meters, Newtons, ...)
If the header above contains a line with 'inDegrees', this indicates whether rotational values are in degrees (yes) or radians (no).

endheader
time	pelvis_tilt	pelvis_list	pelvis_rotation	pelvis_tx	pelvis_ty	pelvis_tz	hip_flexion_r	hip_adduction_r	hip_rotation_r	knee_angle_r	ankle_angle_r	subtalar_angle_r	mtp_angle_r	hip_flexion_l	hip_adduction_l	hip_rotation_l	knee_angle_l	ankle_angle_l	subtalar_angle_l	mtp_angle_l	lumbar_extension	lumbar_bending	lumbar_rotation	arm_flex_r	arm_add_r	arm_rot_r	elbow_flex_r	pro_sup_r	arm_flex_l	arm_add_l	arm_rot_l	elbow_flex_l	pro_sup_l
      8.47500000	      0.01884373	     -6.14066827	   -177.55869759	      0.11842608	      1.05471320	      0.12855507	     25.72255996	     -3.26897870	     -7.30488859	     21.62547945	     -7.00089589	      0.07350513	      0.00000000	     -1.65815118	      6.91075129	      0.06312651	     89.84793824	    -16.88916922	    -25.45769033	      0.00000000	    -15.44268741	     -6.46875084	    -12.12337725	    -24.20548458	    -15.65424098	     -1.88306753	    108.40609978	     98.52713018	      8.36828232	    -27.15192210	     29.44061624	    100.55573376	     75.27204035
      8.48333330	      0.14765873	     -5.73731887	   -177.94588134	      0.11997216	      1.04689167	      0.12796921	     25.99392675	     -2.50883210	     -6.28343046	     25.01259788	     -4.39901010	     -2.46637263	      0.00000000	      0.68734798	      6.13276471	     -0.16677894	     94.50882929	    -16.09795091	    -24.91075909	      0.00000000	    -15.66790772	     -5.76225078	    -10.86049526	    -22.91216694	    -16.37011882	     -1.82552206	    108.22726932	     98.90751478	      6.16407544	    -27.77069765	     28.42194173	     99.28694052	     76.47466621
      8.49166670	     -0.32739463	     -5.25908567	   -178.19326503	      0.12143372	      1.04131446	      0.12725225	     25.59025815	     -1.69872120	     -5.60508053	     28.53297341	     -1.04944430	     -4.37015801	      0.00000000	      2.48884944	      5.24776092	     -0.12366667	     98.69050728	    -15.72366899	    -25.10263375	      0.00000000	    -16.77840591	     -4.96811989	     -9.42184148	    -21.52102458	    -16.90795052	     -2.27679738	    108.14958817	     98.93785516	      4.93830079	    -28.69896842	     28.25658601	     98.08284685	     76.66901074
      8.50000000	      0.65294444	     -4.96543006	   -178.66602011	      0.12259251	      1.03338766	      0.12562498	     26.86803747	     -0.70722965	     -3.81245011	     32.26724881	      1.56341852	     -7.23028498	      0.00000000	      5.96014551	      4.46994206	     -0.36986730	    102.64956956	    -14.38199334	    -24.20268773	      0.00000000	    -15.96498428	     -4.64549831	     -9.89583971	    -18.15003075	    -18.34899439	      0.48679807	    106.33361702	    100.66004698	     -0.15322388	    -28.93774542	     23.05744067	     97.06784684	     84.71211830
      8.50833330	      0.74474643	     -4.50719348	   -179.00862779	      0.12446466	      1.02724418	      0.12424639	     26.92740117	      0.37564645	     -2.50528611	     35.53273654	      3.84056471	     -9.68575246	      0.00000000	      8.55489159	      3.49662278	     -0.33653301	    106.15530308	    -13.31336645	    -23.54467629	      0.00000000	    -16.50402844	     -3.86542564	     -8.11396966	    -16.83366997	    -18.77687022	      0.06681965	    106.33934101	    100.65777679	     -1.22836603	    -29.10172621	     22.13068936	     94.57126109	     85.20079987
      8.51666670	      1.24848826	     -4.15514639	   -179.24694836	      0.12631419	      1.02110365	      0.12274791	     27.22631663	      1.30415044	     -1.33370355	     38.46650958	      5.63343410	    -12.11694226	      0.00000000	     11.70118851	      2.64244928	     -0.20528626	    109.24268384	    -12.24712364	    -22.76480137	      0.00000000	    -16.47910884	     -3.37595434	     -6.54413036	    -15.23875636	    -19.14003685	      0.08431544	    105.52331078	    100.71846252	     -2.44873293	    -29.19443265	     21.21960283	     92.20660970	     86.05313346
